HIERARCHY
ROOT hip
{
	OFFSET 0.000000 0.000000 0.000000 
	CHANNELS 6 Xposition Yposition Zposition Xrotation Zrotation Yrotation
	JOINT abdomen
	{
		OFFSET 0.000000 3.402643 0.000000 
		CHANNELS 3 Xrotation Zrotation Yrotation
		JOINT chest
		{
			OFFSET 0.000000 8.438565 -0.680529 
			CHANNELS 3 Xrotation Zrotation Yrotation
			JOINT neck
			{
				OFFSET 0.000000 10.207942 -0.272212 
				CHANNELS 3 Xrotation Zrotation Yrotation
				JOINT head
				{
					OFFSET 0.000000 3.130431 0.000000 
					CHANNELS 3 Xrotation Zrotation Yrotation
					End Site
					{
						OFFSET 0.000000 3.130435 0.000000 
					}
				}
			}
			JOINT lCollar
			{
				OFFSET 3.470700 6.669187 -0.816635 
				CHANNELS 3 Yrotation Zrotation Xrotation
				JOINT lShldr
				{
					OFFSET 3.198488 0.000000 0.000000 
					CHANNELS 3 Zrotation Yrotation Xrotation
					JOINT lForeArm
					{
						OFFSET 10.139888 0.000000 0.000000 
						CHANNELS 3 Yrotation Zrotation Xrotation
						JOINT lHand
						{
							OFFSET 8.370511 0.000000 0.000000 
							CHANNELS 3 Zrotation Yrotation Xrotation
							End Site
							{
								OFFSET 4.083176 0.000000 0.000000 
							}
						}
					}
				}
			}
			JOINT rCollar
			{
				OFFSET -3.470700 6.669187 -0.816635 
				CHANNELS 3 Yrotation Zrotation Xrotation
				JOINT rShldr
				{
					OFFSET -3.198488 0.000000 0.000000 
					CHANNELS 3 Zrotation Yrotation Xrotation
					JOINT rForeArm
					{
						OFFSET -10.139888 0.000000 0.000000 
						CHANNELS 3 Yrotation Zrotation Xrotation
						JOINT rHand
						{
							OFFSET -8.370511 0.000000 0.000000 
							CHANNELS 3 Zrotation Yrotation Xrotation
							End Site
							{
								OFFSET -4.083176 0.000000 0.000000 
							}
						}
					}
				}
			}
		}
	}
	JOINT lThigh
	{
		OFFSET 5.308129 -1.633274 1.361059 
		CHANNELS 3 Xrotation Zrotation Yrotation
		JOINT lShin
		{
			OFFSET -2.041588 -20.007561 0.000000 
			CHANNELS 3 Xrotation Zrotation Yrotation
			JOINT lFoot
			{
				OFFSET 0.000000 -19.190928 -1.224953 
				CHANNELS 3 Xrotation Yrotation Zrotation
				End Site
				{
					OFFSET 0.000000 -2.449906 4.627600 
				}
			}
		}
	}
	JOINT rThigh
	{
		OFFSET -5.308129 -1.633274 1.361059 
		CHANNELS 3 Xrotation Zrotation Yrotation
		JOINT rShin
		{
			OFFSET 2.041588 -20.007561 0.000000 
			CHANNELS 3 Xrotation Zrotation Yrotation
			JOINT rFoot
			{
				OFFSET 0.000000 -19.190928 -1.224953 
				CHANNELS 3 Xrotation Yrotation Zrotation
				End Site
				{
					OFFSET 0.000000 -2.449906 4.627600 
				}
			}
		}
	}
}
MOTION
Frames: 19
Frame Time: 0.016667
8.184076 38.019161 9.868574 20.203899 3.437340 17.016001 -13.439100 1.090200 -2.143530 14.793200 -1.389430 -0.406694 13.669500 23.156900 -12.566500 17.773899 11.820800 -3.570140 2.000000 -2.000000 0.000000 -92.451797 -28.039700 -101.139000 59.932201 -0.283348 0.118372 0.051037 -0.044871 -153.162003 -2.000000 2.000000 0.000000 77.830902 8.400450 -155.548004 -43.936001 0.313301 0.094865 -0.189606 0.158441 142.130997 -42.541996 5.674749 10.884422 47.331161 1.491872 3.557792 -15.132228 11.965121 3.425881 -51.119308 -11.424746 14.590811 54.492485 -1.490391 -3.732076 -17.382021 -6.577442 -4.548279 
8.585550 37.972755 9.951077 20.069099 3.532070 16.475500 -13.351100 1.147070 -2.184080 14.823000 -1.175730 -0.428858 14.005800 22.896099 -12.360400 17.950199 11.754700 -3.489350 2.000000 -2.000000 0.000000 -92.667099 -28.156900 -101.294998 59.775902 -0.283671 0.118185 0.051006 -0.044766 -153.123001 -2.000000 2.000000 0.000000 77.439796 8.594520 -154.970993 -43.877399 0.313398 0.094764 -0.190119 0.158522 141.945007 -42.930531 5.564577 9.941815 47.172745 1.520510 3.535835 -14.048565 12.360957 3.403978 -50.931786 -11.579473 14.941954 54.403069 -1.513671 -3.717120 -17.422436 -6.434560 -4.549030 
9.029691 37.928024 10.033813 19.985201 3.717600 15.784700 -13.244600 1.121670 -2.084980 14.950200 -1.088520 -0.391218 14.201400 22.877501 -12.221300 18.131599 11.783300 -3.405180 2.000000 -2.000000 0.000000 -92.842796 -28.371799 -101.236000 59.678299 -0.283872 0.118067 0.051037 -0.044871 -153.162003 -2.000000 2.000000 0.000000 77.185600 8.798840 -154.619003 -43.789501 0.313543 0.094613 -0.190390 0.158564 141.848007 -43.105633 5.310395 9.232850 47.379269 1.504772 3.552290 -13.797897 12.159334 3.330432 -50.830357 -11.745105 15.495445 54.292568 -1.557004 -3.684160 -17.365395 -6.307425 -4.516844 
9.495580 37.885880 10.127616 19.755501 3.934480 14.956600 -13.266300 1.055120 -1.821130 14.842600 -1.146620 -0.275924 14.307600 22.885599 -12.157700 18.193899 11.827500 -3.379530 2.000000 -2.000000 0.000000 -93.047203 -28.264200 -100.972000 59.414600 -0.284414 0.117749 0.050976 -0.044661 -153.084000 -2.000000 2.000000 0.000000 77.244202 8.603780 -154.737000 -43.594200 0.313865 0.094276 -0.190146 0.158526 141.936005 -42.843159 5.108754 9.013996 47.831497 1.467823 3.581110 -13.417021 13.082208 3.516677 -50.556320 -11.815001 16.242846 54.115307 -1.579093 -3.671352 -17.161646 -6.067134 -4.443350 
9.986305 37.836884 10.236595 19.614300 4.158860 14.137000 -13.472500 0.850334 -1.568880 14.548900 -1.417950 -0.163336 14.455500 22.803900 -12.075800 18.192400 11.799100 -3.388540 2.000000 -2.000000 0.000000 -93.222000 -27.873501 -100.674004 58.994701 -0.285275 0.117236 0.050984 -0.044687 -153.093994 -2.000000 2.000000 0.000000 77.546898 8.096180 -154.835999 -43.379299 0.314218 0.093904 -0.190336 0.158555 141.867004 -42.427147 4.830886 9.291903 48.381626 1.432205 3.617151 -14.999166 11.840296 3.428796 -50.344254 -11.968947 16.981594 53.966541 -1.620776 -3.657420 -17.203175 -5.699067 -4.349407 
10.503455 37.789322 10.347956 19.565001 4.510050 13.505500 -13.560500 0.756494 -1.488570 14.510000 -1.369300 -0.157744 14.691500 22.439699 -11.920300 18.226500 11.692800 -3.377040 2.000000 -2.000000 0.000000 -93.690399 -27.775700 -100.538002 58.428200 -0.286430 0.116534 0.050946 -0.044556 -153.044998 -2.000000 2.000000 0.000000 77.478401 7.900670 -154.748001 -43.203602 0.314505 0.093599 -0.191336 0.158707 141.505997 -42.001629 4.251103 9.813750 48.864174 1.376319 3.655330 -15.641572 13.524996 3.962719 -50.195744 -12.392005 17.728100 53.856796 -1.662057 -3.641767 -17.349735 -5.502732 -4.348333 
11.008327 37.766502 10.459833 19.395599 4.754440 12.990600 -13.687600 0.678103 -1.422430 14.402500 -1.378730 -0.144365 14.958500 22.051800 -11.788300 18.237700 11.530900 -3.385670 2.000000 -2.000000 0.000000 -93.973099 -27.570601 -100.382004 57.891102 -0.287519 0.115858 0.050720 -0.043767 -152.751999 -2.000000 2.000000 0.000000 77.595703 7.520320 -154.983002 -43.105900 0.314665 0.093429 -0.191174 0.158683 141.565002 -41.587048 3.748182 10.269056 49.356232 1.328772 3.696370 -16.610832 14.064192 4.248415 -49.829639 -12.658071 18.494757 53.677959 -1.701248 -3.608112 -17.492920 -5.685751 -4.484236 
11.480967 37.771919 10.580350 19.205999 4.639940 12.444500 -13.728300 0.796544 -1.272490 14.470900 -1.369200 -0.059154 15.131900 21.803499 -11.764600 18.280899 11.405300 -3.418240 2.000000 -2.000000 0.000000 -94.255402 -27.560699 -100.050003 57.344299 -0.288621 0.115159 0.050476 -0.042898 -152.429993 -2.000000 2.000000 0.000000 77.752403 7.287110 -155.520996 -42.959400 0.314903 0.093173 -0.190092 0.158518 141.955002 -41.379147 3.671845 10.418236 49.915604 1.290311 3.719190 -17.357775 14.453925 4.494989 -49.335438 -12.493958 19.158361 53.352825 -1.749873 -3.592674 -17.592182 -6.274152 -4.703361 
11.941105 37.789063 10.707348 19.074400 4.486610 11.960200 -13.778400 1.025530 -1.269740 14.530100 -1.116840 -0.067669 15.299700 21.610001 -11.597800 18.329599 11.383800 -3.364480 2.000000 -2.000000 0.000000 -94.655502 -27.619200 -99.912804 56.719299 -0.289872 0.114348 0.050273 -0.042160 -152.156006 -2.000000 2.000000 0.000000 77.713501 7.248470 -155.716003 -42.558998 0.315552 0.092472 -0.190092 0.158518 141.955002 -41.151470 3.619246 10.530978 50.396278 1.261700 3.738913 -18.315588 13.819685 4.439361 -48.850361 -12.331281 19.818602 52.978645 -1.788575 -3.563951 -17.531349 -6.831892 -4.893631 
12.398096 37.818069 10.830819 19.043800 4.441240 11.561100 -13.867700 1.225720 -1.261630 14.618400 -0.883904 -0.074092 15.466400 21.505899 -11.535800 18.368401 11.362800 -3.371280 2.000000 -2.000000 0.000000 -94.840302 -27.677700 -99.639297 56.289600 -0.290727 0.113782 0.050159 -0.041738 -152.000000 -2.000000 2.000000 0.000000 77.615799 7.043330 -155.688004 -42.334400 0.315913 0.092076 -0.191796 0.158774 141.339996 -40.924805 3.427420 10.856683 50.721802 1.216618 3.775508 -19.043167 13.421758 4.413790 -48.497131 -12.326905 20.526257 52.634434 -1.812714 -3.536503 -17.319790 -7.479052 -5.075662 
12.822397 37.861904 10.967636 19.040800 4.330470 11.190200 -13.918200 1.476080 -1.285080 14.823900 -0.641308 -0.091874 15.856700 21.501699 -11.498800 18.578300 11.370900 -3.382750 2.000000 -2.000000 0.000000 -94.956200 -27.892401 -99.111900 55.967300 -0.291365 0.113354 0.050166 -0.041764 -152.009995 -2.000000 2.000000 0.000000 77.400703 6.710900 -155.503006 -42.402802 0.315803 0.092197 -0.192798 0.168682 140.979004 -40.699295 3.356837 11.260650 50.889191 1.196950 3.790132 -19.635799 13.065478 4.363534 -48.145298 -12.169405 21.213278 52.299595 -1.852602 -3.516032 -17.052750 -8.436391 -5.358873 
13.232656 37.913712 11.118304 18.960800 4.267850 10.908300 -14.007900 1.685470 -1.280200 14.970500 -0.515120 -0.076573 16.072201 21.495701 -11.592500 18.656300 11.338400 -3.472260 2.000000 -2.000000 0.000000 -95.031898 -28.165501 -98.184097 55.684101 -0.291924 0.112974 0.050201 -0.041896 -152.057999 -2.000000 2.000000 0.000000 77.303200 6.272060 -155.787003 -42.558998 0.315552 0.092472 -0.192067 0.168579 141.242004 -40.285812 3.217825 11.800683 50.879902 1.191166 3.797515 -20.024885 12.900087 4.342021 -47.683681 -12.009527 22.003328 52.112114 -1.885350 -3.507572 -17.003632 -9.310659 -5.602814 
13.663025 37.956390 11.271825 18.942600 4.684260 10.785400 -13.927900 1.721250 -1.625990 15.302700 -0.282013 -0.257270 16.442600 21.382200 -11.505500 18.893900 11.306900 -3.440880 2.000000 -2.000000 0.000000 -95.002800 -28.614700 -98.223000 55.498501 -0.292290 0.112724 0.049975 -0.041051 -151.746002 -2.000000 2.000000 0.000000 76.814796 6.232770 -155.679993 -42.998501 0.314840 0.093241 -0.191120 0.158675 141.584000 -39.723198 2.477824 12.543780 50.734592 1.170442 3.812684 -20.421423 13.023978 4.417862 -47.373531 -12.436979 22.808340 52.188812 -1.911113 -3.498302 -16.992571 -9.958360 -5.822855 
14.079237 37.967602 11.415135 19.021799 5.356630 10.593500 -14.044600 1.675410 -1.639160 15.449200 -0.204264 -0.294243 16.215000 21.191999 -11.834500 18.635599 11.140500 -3.673300 2.000000 -2.000000 0.000000 -94.815697 -28.594999 -97.656601 55.459499 -0.292366 0.112671 0.049665 -0.039860 -151.307007 -2.000000 2.000000 0.000000 77.040100 5.804780 -156.462006 -43.183998 0.314537 0.093565 -0.189120 0.168128 142.307007 -39.240948 1.494351 13.264961 50.558842 1.151864 3.800334 -20.944918 13.179822 4.541742 -47.419605 -13.013960 23.524052 52.431362 -1.943269 -3.487103 -16.609859 -10.816273 -5.970256 
14.470175 37.968121 11.513926 19.352100 5.253720 10.055200 -14.026300 1.925550 -1.800840 15.830100 -0.194648 -0.335469 16.337900 21.056499 -11.959600 18.811501 11.074500 -3.712610 2.000000 -2.000000 0.000000 -94.835403 -29.200399 -97.685799 55.293499 -0.292692 0.112446 0.049364 -0.038667 -150.867004 -2.000000 2.000000 0.000000 76.795898 6.087790 -156.373001 -43.467201 0.314073 0.094056 -0.189390 0.168172 142.209000 -39.423367 1.392680 13.609546 50.619671 1.129125 3.836468 -21.392893 12.958559 4.492699 -47.818779 -12.699465 23.855429 52.442551 -1.916917 -3.494296 -16.120895 -11.889295 -6.141407 
14.749559 38.027668 11.674793 19.435600 4.780920 9.771110 -14.088400 2.367700 -2.004290 16.074200 -0.019472 -0.389099 16.181801 20.929701 -12.119400 18.709101 11.023000 -3.825940 2.000000 -2.000000 0.000000 -94.718002 -29.512899 -97.578201 55.264198 -0.292750 0.112406 0.049059 -0.037418 -150.408005 -2.000000 2.000000 0.000000 76.649399 6.117070 -156.363007 -43.838299 0.313462 0.094697 -0.189822 0.158475 142.052994 -39.415035 1.728428 13.648527 50.854382 1.120508 3.834385 -21.771240 12.199502 4.232578 -47.690517 -11.914034 23.725136 52.503609 -1.878845 -3.513482 -16.186878 -13.087941 -6.497720 
15.039167 38.043777 11.821283 19.496500 4.852850 9.499250 -14.158500 2.646860 -2.228330 16.230400 0.214232 -0.484957 15.898700 20.734301 -12.299900 18.485600 10.939600 -3.951420 2.000000 -2.000000 0.000000 -94.502701 -29.766800 -97.373100 55.469200 -0.292347 0.112684 0.048826 -0.036434 -150.046997 -2.000000 2.000000 0.000000 76.405197 6.224260 -156.255997 -44.287498 0.312717 0.095467 -0.189660 0.158450 142.110992 -39.211868 1.495856 13.902868 50.981770 1.112118 3.835667 -22.151407 11.922604 4.166954 -47.812664 -11.598125 23.662233 52.839024 -1.832234 -3.539920 -16.363281 -13.818597 -6.744420 
15.312487 38.044556 11.977994 19.449800 5.241360 9.240560 -14.109100 2.796040 -2.492980 16.425699 0.370130 -0.593138 15.628400 20.505199 -12.540100 18.378901 10.802600 -4.054450 2.000000 -2.000000 0.000000 -94.160599 -30.313601 -97.226402 55.908699 -0.291481 0.113275 0.048641 -0.035634 -149.753998 -2.000000 2.000000 0.000000 76.219597 6.643750 -156.059006 -44.629299 0.312146 0.096049 -0.189390 0.168172 142.209000 -38.764603 1.015594 14.411395 50.963615 1.098531 3.858991 -22.403524 11.892278 4.170314 -48.004864 -11.516074 23.399076 53.429188 -1.776242 -3.574115 -16.587967 -14.264934 -6.897618 
15.563001 38.030251 12.147401 19.505899 5.737210 8.893890 -14.137700 2.938050 -2.750660 16.513500 0.555255 -0.713073 15.427400 20.165199 -12.726500 18.281500 10.646100 -4.151980 2.000000 -2.000000 0.000000 -93.740898 -30.704201 -97.304497 56.543499 -0.290222 0.114117 0.048420 -0.034647 -149.391998 -2.000000 2.000000 0.000000 76.043503 6.965170 -155.667999 -44.893002 0.311703 0.096496 -0.188985 0.168106 142.356003 -38.347904 0.533320 15.176353 50.846165 1.095046 3.851906 -22.654240 11.826311 4.194264 -48.450928 -11.455841 23.003468 54.147713 -1.701186 -3.623259 -16.852819 -14.194974 -6.900026 
